<?xml version="1.0"?>
<svg xmlns="http://www.w3.org/2000/svg" xmlns:xlink="http://www.w3.org/1999/xlink" xmlns:svgjs="http://svgjs.com/svgjs" version="1.1" width="512" height="512" x="0" y="0" viewBox="0 0 62 62" style="enable-background:new 0 0 512 512" xml:space="preserve" class=""><g><g xmlns="http://www.w3.org/2000/svg" id="009---Keyboard"><path id="Shape" d="m16.858 59.284c2.3431136 2.3429582 6.1418864 2.3429582 8.485 0l33.941-33.941c2.3429582-2.3431136 2.3429582-6.1418864 0-8.485l-14.142-14.142c-2.3431136-2.34295817-6.1418864-2.34295817-8.485 0l-33.941 33.941c-2.34295817 2.3431136-2.34295817 6.1418864 0 8.485zm7.424-1.768-10.606-10.606 2.124-2.121 5.657 5.656c.7809997.7807639 2.0470003.7807639 2.828 0l3.536 3.536zm29.7-29.7-3.536-3.535c.375248-.375096.5860729-.8839266.5860729-1.4145s-.2108249-1.039404-.5860729-1.4145l-5.658-5.652 2.122-2.122 10.607 10.605zm-4.95-4.95-1.414 1.415-5.658-5.655 1.414-1.414 5.658 5.655zm-4.949 4.95c.917.916.971.974-.001.002zm-16.265 16.266-5.657-5.657 1.414-1.415 5.658 5.657zm11.314-1.415-10.607-10.607 2.122-2.121 5.653 5.661c.7809997.7807639 2.0470003.7807639 2.828 0l3.535 3.536zm-1.414-8.485-5.657-5.657 1.414-1.414 5.658 5.656zm-7.072 7.071-5.657-5.653 2.122-2.122 10.607 10.603-3.536 3.536-3.536-3.535c.375248-.375096.5860729-.8839266.5860729-1.4145s-.2108249-1.039404-.5860729-1.4145zm13.435-3.535-3.535-3.536c.7807639-.7809997.7807639-2.0470003 0-2.828l-5.657-5.654.708-.708 5.656 5.657c.7809997.7807639 2.0470003.7807639 2.828 0l3.536 3.536zm-1.414-8.486-5.656-5.657 1.414-1.413 5.656 5.657zm-24.041 12.728 5.657 5.656-1.415 1.415-5.657-5.656zm7.074 4.24-5.66-5.654.707-.707 5.653 5.661c.375096.375248.8839266.5860729 1.4145.5860729s1.039404-.2108249 1.4145-.5860729l3.536 3.535-3.536 3.536-3.529-3.54c.3758603-.3751769.587074-.8844363.587074-1.4155s-.2112137-1.0403231-.587074-1.4155zm23.331-13.432-3.531-3.535c.7800976-.7808851.7800976-2.0461149 0-2.827l-5.657-5.657.707-.707 5.65 5.658c.7809997.7807639 2.0470003.7807639 2.828 0l3.536 3.535zm-44.9 5.3 33.94-33.938c.7501514-.7501901 1.7675983-1.17164575 2.8285-1.17164575s2.0783486.42145565 2.8285 1.17164575l14.142 14.142c1.1550918 1.1512871 1.4932612 2.889652.854 4.39l-10.4-10.4c-.7809997-.7807639-2.0470003-.7807639-2.828 0l-33.235 33.238c-.7807639.7809997-.7807639 2.0470003 0 2.828l10.4 10.4c-1.4999342.6384834-3.2373968.3008084-4.389-.853l-14.142-14.147c-.7501901-.7501514-1.17164575-1.7675983-1.17164575-2.8285s.42145565-2.0783486 1.17164575-2.8285z" fill="#ffffff" data-original="#000000" style="" class=""/><path id="Shape" d="m21.1 31c.7809997.7807639 2.0470003.7807639 2.828 0l7.072-7.071c.375248-.375096.5860729-.8839266.5860729-1.4145s-.2108249-1.039404-.5860729-1.4145l-2.121-2.122c-.7809997-.7807639-2.0470003-.7807639-2.828 0l-7.072 7.072c-.7807639.7809997-.7807639 2.0470003 0 2.828zm6.364-10.606 2.122 2.119-7.071 7.071-2.121-2.122z" fill="#ffffff" data-original="#000000" style="" class=""/><path id="Shape" d="m10.494 43.983c2.036418-.0004704 3.8187107-1.3684655 4.3456817-3.3355192.526971-1.9670536-.332738-4.0428374-2.0961886-5.0612875-1.7634506-1.01845-3.99106668-.7256968-5.4314931.7138067-1.28772285 1.2868977-1.67318645 3.2229063-.97657437 4.9048895.69661207 1.6819832 2.33804265 2.778531 4.15857437 2.7781105zm-1.768-6.266c.97637875-.9761213 2.5591714-.9759822 3.5353785.0003107.9762072.976293.9762072 2.5590856 0 3.5353786-.9762071.9762929-2.55899975.976432-3.5353785.0003107-.46898353-.4688599-.73246612-1.1048446-.73246612-1.768s.26348259-1.2991401.73246612-1.768z" fill="#ffffff" data-original="#000000" style="" class=""/><path id="Shape" d="m39.485 14.994c2.4852814 0 4.5-2.0147186 4.5-4.5 0-2.48528137-2.0147186-4.5-4.5-4.5s-4.5 2.01471863-4.5 4.5c0 2.4852814 2.0147186 4.5 4.5 4.5zm1.768-6.268c.7999261.80013712.9627643 2.0377695.3970313 3.0175896-.5657331.9798201-1.7189978 1.4575549-2.8118849 1.1648108s-1.8529354-1.2829848-1.8531464-2.4144004c-.0001886-1.01130044.6089191-1.92310544 1.5432283-2.31013888s2.0097686-.17305282 2.7247717.54213888z" fill="#ffffff" data-original="#000000" style="" class=""/><path id="Shape" d="m16.857 32c.5 0 .639-.224 1.415-1 .2527654-.2525868.3515769-.6208353.259213-.96603-.0923638-.3451946-.3618707-.6148921-.707-.7075s-.7134476.0059432-.966213.25853l-.708.707c-.2866239.2859-.3725934.7164072-.2177586 1.0904636.1548349.3740564.5199229.6178554.9247586.6175364z" fill="#ffffff" data-original="#000000" style="" class=""/><path id="Shape" d="m18.979 31.707-.707.707c-.2525868.2527654-.3511378.6210837-.25853.966213.0926079.3451292.3623054.6146361.7075.707.3451947.0923638.7134432-.0064476.96603-.259213l.707-.707c.3904653-.3907415.3902415-1.0240347-.0005-1.4145s-1.0240347-.3902415-1.4145.0005z" fill="#ffffff" data-original="#000000" style="" class=""/><path id="Shape" d="m30.293 18.565c.494 0 .638-.224 1.414-1 .3789722-.3923789.3735524-1.0160848-.0121814-1.4018186s-1.0094397-.3911536-1.4018186-.0121814l-.707.707c-.2859079.2859943-.3714219.7160366-.216678 1.0896546.1547439.3736179.5192821.6172591.923678.6173454z" fill="#ffffff" data-original="#000000" style="" class=""/><path id="Shape" d="m31.707 20.394c.3904999.3903819 1.0235001.3903819 1.414 0l.707-.708c.2599566-.2510745.3642126-.6228779.2726972-.9725073-.0915155-.3496295-.3645604-.6226744-.7141899-.7141899-.3496294-.0915154-.7214328.0127406-.9725073.2726972l-.707.707c-.187777.1875683-.2932867.4420908-.2932867.7075s.1055097.5199317.2932867.7075z" fill="#ffffff" data-original="#000000" style="" class=""/><path id="Shape" d="m6 23c2.757 0 5-1.794 5-4v-13.814c1.7851776 1.16642673 3.8676101 1.79601548 6 1.814.5522847 0 1-.44771525 1-1s-.4477153-1-1-1c-.051 0-5.232-.054-6.03-3.243-.1227443-.48975536-.5913178-.81118457-1.09242243-.74937319-.5011046.06181138-.87752461.48747076-.87757757.99237319v13.82c-3.327-2.014-8-.08-8 3.18 0 2.206 2.243 4 5 4zm0-6c1.626 0 3 .916 3 2s-1.374 2-3 2-3-.916-3-2 1.374-2 3-2z" fill="#ffffff" data-original="#000000" style="" class=""/><path id="Shape" d="m51 57c0 2.206 2.243 4 5 4s5-1.794 5-4v-16c0-1.1045695-.8954305-2-2-2h-9c-1.1045695 0-2 .8954305-2 2v12.82c-3.327-2.014-8-.08-8 3.18 0 2.206 2.243 4 5 4s5-1.794 5-4v-12h9v8.82c-3.327-2.014-8-.08-8 3.18zm5 2c-1.626 0-3-.916-3-2s1.374-2 3-2 3 .916 3 2-1.374 2-3 2zm-11 0c-1.626 0-3-.916-3-2s1.374-2 3-2 3 .916 3 2-1.374 2-3 2zm5-16v-2h9v2z" fill="#ffffff" data-original="#000000" style="" class=""/></g></g></svg>
