<?xml version="1.0"?>
<svg xmlns="http://www.w3.org/2000/svg" xmlns:xlink="http://www.w3.org/1999/xlink" xmlns:svgjs="http://svgjs.com/svgjs" version="1.1" width="512" height="512" x="0" y="0" viewBox="0 0 509.851 509.851" style="enable-background:new 0 0 512 512" xml:space="preserve" class=""><g><g xmlns="http://www.w3.org/2000/svg" id="XMLID_868_"><path id="XMLID_908_" d="m0 .259v509.333h509.851v-509.333zm30 30h209.926v209.408h-209.926zm209.926 449.333h-209.926v-209.408h209.926zm239.925 0h-209.925v-209.408h209.925zm-209.925-239.925v-209.408h209.925v209.408z" fill="#ffffff" data-original="#000000" style="" class=""/><path id="XMLID_967_" d="m138.362 59.592h-28.512v30h28.512c5.231 0 9.488 4.256 9.488 9.488s-4.257 9.488-9.488 9.488h-28.512v47.238h30v-17.266c21.087-.785 38-18.185 38-39.46.001-21.774-17.714-39.488-39.488-39.488z" fill="#ffffff" data-original="#000000" style="" class=""/><path id="XMLID_968_" d="m109.851 182.987h30v27.065h-30z" fill="#ffffff" data-original="#000000" style="" class=""/><path id="XMLID_969_" d="m377.924 379.924c21.087-.785 38-18.185 38-39.46 0-21.774-17.715-39.489-39.488-39.489h-28.512v30h28.512c5.231 0 9.488 4.257 9.488 9.489s-4.257 9.488-9.488 9.488h-28.512v47.237h30z" fill="#ffffff" data-original="#000000" style="" class=""/><path id="XMLID_970_" d="m347.924 424.369h30v27.065h-30z" fill="#ffffff" data-original="#000000" style="" class=""/><path id="XMLID_973_" d="m87.428 393.25-6.587 62.033 54.122-25.405 54.122 25.405-6.587-62.033 40.764-39.869-55.883-14.679-32.416-46.584-32.416 46.584-55.883 14.679zm33.431-28.339 14.104-20.269 14.104 20.269 15.373 4.038-13.309 13.016 2.499 23.535-18.667-8.763-18.667 8.763 2.499-23.535-13.309-13.016z" fill="#ffffff" data-original="#000000" style="" class=""/><path id="XMLID_987_" d="m463.187 113.529-55.883-14.679-32.416-46.584-32.416 46.584-55.883 14.679 40.764 39.869-6.587 62.033 54.122-25.405 54.122 25.405-6.587-62.033zm-69.632 52.119-18.667-8.763-18.667 8.763 2.499-23.535-13.309-13.016 15.373-4.038 14.104-20.269 14.104 20.269 15.373 4.038-13.309 13.016z" fill="#ffffff" data-original="#000000" style="" class=""/></g></g></svg>
