<?xml version="1.0"?>
<svg xmlns="http://www.w3.org/2000/svg" xmlns:xlink="http://www.w3.org/1999/xlink" xmlns:svgjs="http://svgjs.com/svgjs" version="1.1" width="512" height="512" x="0" y="0" viewBox="0 0 512 512" style="enable-background:new 0 0 512 512" xml:space="preserve" class=""><g><g xmlns="http://www.w3.org/2000/svg"><path d="m182.179 159.75h30c0-31.002 4.415-66.799-24.143-95.356-8.968-8.968-17.455-16.07-24.942-22.336-19.799-16.57-27.833-24.012-27.833-42.058h-30v221.406c-10.734-7.199-23.634-11.406-37.5-11.406-37.22 0-67.5 30.28-67.5 67.5s30.28 67.5 67.5 67.5c37.448 0 68.135-30.713 67.468-68.75h.032v-218.469c9.458 8.262 20.077 16.341 31.562 27.825 19.029 19.031 15.356 44.009 15.356 74.144z" fill="#ffffff" data-original="#000000" style="" class=""/><path d="m254.739 154.682v233.725c-10.733-7.199-23.633-11.406-37.5-11.406-37.22 0-67.5 30.28-67.5 67.5s30.28 67.5 67.5 67.5 67.5-30.28 67.5-67.5v-205.901c49.72-9.848 147.613-29.233 197-39.014v128.82c-10.733-7.199-23.633-11.406-37.5-11.406-37.22 0-67.5 30.28-67.5 67.5s30.28 67.5 67.5 67.5 67.5-30.28 67.5-67.5c0-16.537 0-268.158 0-280.766z" fill="#ffffff" data-original="#000000" style="" class=""/></g></g></svg>
