<?xml version="1.0"?>
<svg xmlns="http://www.w3.org/2000/svg" xmlns:xlink="http://www.w3.org/1999/xlink" xmlns:svgjs="http://svgjs.com/svgjs" version="1.1" width="512" height="512" x="0" y="0" viewBox="0 0 64 64" style="enable-background:new 0 0 512 512" xml:space="preserve" class=""><g><g xmlns="http://www.w3.org/2000/svg"><path d="m54 42.8c0 13.255-9.85 19.2-22 19.2s-22-5.945-22-19.2 9.85-28.8 22-28.8 22 15.545 22 28.8z" fill="#ffffff" data-original="#f2c351" style="" class=""/><path d="m34 23c0-3.142-.525-6.16-1.48-8.979-.173-.007-.346-.021-.52-.021-12.15 0-22 15.545-22 28.8 0 2.909.475 5.465 1.344 7.685 12.907-2.496 22.656-13.849 22.656-27.485z" fill="#ffffff" data-original="#f7d881" style="" class=""/><circle cx="32" cy="40" fill="#000000" r="14" data-original="#c16b3f" style="" class=""/><path d="m33.821 26.132c-.597-.078-1.202-.132-1.821-.132-7.732 0-14 6.268-14 14 0 2.649.749 5.117 2.027 7.229 7.497-4.35 12.789-12.074 13.794-21.097z" fill="#000000" data-original="#e39854" style="" class=""/><path d="m26 11-4.489-5.387c-.33-.396-.511-.895-.511-1.41 0-1.217.986-2.203 2.203-2.203h.726c1.326 0 2.598.527 3.536 1.464.296.296.775.296 1.071 0l.05-.05c.905-.905 2.133-1.414 3.414-1.414 1.281 0 2.509.509 3.414 1.414l.05.05c.296.296.775.296 1.071 0 .938-.937 2.21-1.464 3.536-1.464h.101c1.562 0 2.828 1.266 2.828 2.828 0 .75-.298 1.47-.828 2l-4.172 4.172" fill="#ffffff" data-original="#f2c351" style="" class=""/><g fill="#f9d18b"><path d="m27.927 5.628-1.857.743 1.852 4.629h2.154z" fill="#000000" data-original="#f9d18b" style="" class=""/><path d="m33.922 11h2.154l1.852-4.629-1.857-.743z" fill="#000000" data-original="#f9d18b" style="" class=""/><path d="m30.999 4.999h1.999v6.001h-1.999z" fill="#000000" data-original="#f9d18b" style="" class=""/></g><path d="m33 39h-.002v-6h.002c.801 0 1.554.312 2.12.878.567.566.879 1.32.878 2.122v1h2v-1c.001-1.335-.519-2.591-1.463-3.536s-2.2-1.464-3.535-1.464h-.002v-2h-1.999v2c-2.758 0-5 2.243-5 5 0 2.756 2.242 4.999 5 4.999v6c-1.654 0-3-1.345-3-2.999v-1.001h-2v1.001c0 2.756 2.242 4.999 5 4.999v2h1.999v-2h.002c2.757 0 5-2.243 5-5s-2.243-4.999-5-4.999zm-5.001-3c0-1.654 1.346-3 3-3v6c-1.654 0-3-1.347-3-3zm5.001 10.999h-.002v-6h.002c1.653 0 3 1.346 3 3.001 0 1.654-1.347 2.999-3 2.999z" fill="#ffffff" data-original="#f7d881" style="" class=""/><g><path d="m23.808 17.764h6.97v1.999h-6.97z" fill="#000000" transform="matrix(.371 -.929 .929 .371 -.266 37.135)" data-original="#f5b953" style="" class=""/></g><g><path d="m35.705 15.279h1.999v6.97h-1.999z" fill="#000000" transform="matrix(.929 -.371 .371 .929 -4.344 14.975)" data-original="#f9d18b" style="" class=""/></g><g><path d="m31 15.528h2v6.471h-2z" fill="#000000" data-original="#f5b953" style="" class=""/></g><path d="m38 17h-12c-1.657 0-3-1.343-3-3 0-1.657 1.343-3 3-3h12c1.657 0 3 1.343 3 3 0 1.657-1.343 3-3 3z" fill="#000000" data-original="#c16b3f" style="" class=""/><path d="m33.349 17c-.458-2.097-1.148-4.107-2.047-6h-5.302c-1.657 0-3 1.343-3 3s1.343 3 3 3z" fill="#000000" data-original="#e39854" style="" class=""/></g></g></svg>
